<svg width="367" height="369" viewBox="0 0 367 369" fill="none" xmlns="http://www.w3.org/2000/svg">
<path d="M179.761 183.961C180.832 183.961 181.369 182.666 180.611 181.908L3.15955 4.45642C2.4021 3.69897 1.10698 4.23543 1.10698 5.30663L1.10698 182.759C1.10698 183.423 1.64531 183.961 2.30936 183.961L179.761 183.961Z" fill="#FFA70B"/>
<path d="M182.664 0.00012207L182.68 183.961L274.418 91.9884L182.664 0.00012207Z" fill="#8C9DFF"/>
<path d="M366.172 0.00012207L366.156 183.961L274.418 91.9884L366.172 0.00012207Z" fill="#8C9DFF"/>
<path d="M183.04 276.169C183.04 301.903 162.533 322.764 137.237 322.764C111.94 322.764 91.4336 301.903 91.4336 276.169C91.4336 250.436 111.94 229.575 137.237 229.575C162.533 229.575 183.04 250.436 183.04 276.169Z" fill="white"/>
<path d="M91.4337 276.169C91.4337 326.637 50.3424 367.549 0.278398 367.549C0.278398 367.549 0.27832 326.637 0.27832 276.169C0.27832 225.702 0.278398 184.79 0.278398 184.79C50.3424 184.79 91.4337 225.702 91.4337 276.169Z" fill="white"/>
<path d="M275.021 368.378C224.623 368.378 183.693 327.746 183.048 277.377C183.039 276.713 183.562 276.17 184.226 276.17C191.31 276.169 229.263 276.169 275.021 276.169C320.778 276.169 358.731 276.169 365.815 276.17C366.479 276.17 367.002 276.713 366.993 277.377C366.348 327.746 325.418 368.378 275.021 368.378Z" fill="#CFDAFF"/>
<path d="M275.021 276.169C224.623 276.169 183.693 235.537 183.048 185.169C183.039 184.505 183.562 183.961 184.226 183.961C191.31 183.961 229.263 183.961 275.021 183.961C320.778 183.961 358.731 183.961 365.815 183.961C366.479 183.961 367.002 184.505 366.993 185.169C366.348 235.537 325.418 276.169 275.021 276.169Z" fill="#CFDAFF"/>
</svg>
